<svg width="209" height="234" viewBox="0 0 209 234" fill="none" xmlns="http://www.w3.org/2000/svg">
<path d="M36.5 166.5V231H105M36.5 166.5H21L36.5 139.5H105M36.5 166.5H92L105 139.5M173.5 166.5V231H105M173.5 166.5H190L173.5 139.5H105M173.5 166.5H117L105 139.5M105 139.5V189M105 203V231M48 201H70M48 217.5H70" stroke="black" stroke-width="6"/>
<path d="M123.5 128.5V106.5C124.167 95.8333 129 71.9 143 61.5" stroke="black" stroke-width="6"/>
<path d="M166.066 72C149.03 79.4991 141.43 105.235 144.77 121C151.451 102.593 160.638 97.9913 174 89.4696L166.066 72Z" stroke="black" stroke-width="6"/>
<path d="M85 127V105C84.3399 94.3333 79.5545 70.4 65.6931 60" stroke="black" stroke-width="6"/>
<path d="M42.8553 70.5C59.7233 77.9991 67.2479 103.735 63.9403 119.5C57.3254 101.093 48.2299 96.4913 35.0002 87.9696L42.8553 70.5Z" stroke="black" stroke-width="6"/>
<g clip-path="url(#clip0_475_42)">
<path d="M85.4658 64.119L106 49.027L126.534 64.119L118.65 39.7457L139.173 24.75H113.835L106 0.335495L98.1653 24.75H72.8296L93.3501 39.7457L85.4658 64.119ZM106 42.2015L95.9406 49.5962L99.7906 37.6502L89.6733 30.25H102.178L106 18.3397L109.823 30.25H122.33L112.201 37.6502L116.051 49.5962L106 42.2015Z" fill="black"/>
</g>
<g clip-path="url(#clip1_475_42)">
<path d="M180.611 82.0025L191.5 73.9992L202.389 82.0025L198.208 69.0773L209.092 61.125H195.655L191.5 48.1779L187.345 61.125H173.91L184.792 69.0773L180.611 82.0025ZM191.5 70.3796L186.165 74.301L188.207 67.966L182.842 64.0417H189.473L191.5 57.7256L193.527 64.0417H200.16L194.788 67.966L196.83 74.301L191.5 70.3796Z" fill="black"/>
</g>
<g clip-path="url(#clip2_475_42)">
<path d="M6.61055 82.0025L17.4999 73.9992L28.3893 82.0025L24.2083 69.0773L35.0918 61.125H21.6547L17.4999 48.1779L13.3451 61.125H-0.0904986L10.7916 69.0773L6.61055 82.0025ZM17.4999 70.3796L12.1653 74.301L14.207 67.966L8.84179 64.0417H15.4728L17.4999 57.7256L19.527 64.0417H26.1595L20.7885 67.966L22.8301 74.301L17.4999 70.3796Z" fill="black"/>
</g>
<path d="M104 80.5V128.5M104 71.5V64.5" stroke="black" stroke-width="6"/>
<defs>
<clipPath id="clip0_475_42">
<rect width="66" height="66" fill="white" transform="matrix(-1 0 0 1 139 0)"/>
</clipPath>
<clipPath id="clip1_475_42">
<rect width="35" height="35" fill="white" transform="matrix(-1 0 0 1 209 48)"/>
</clipPath>
<clipPath id="clip2_475_42">
<rect width="35" height="35" fill="white" transform="matrix(-1 0 0 1 35 48)"/>
</clipPath>
</defs>
</svg>
