<svg width="173" height="223" viewBox="0 0 173 223" fill="none" xmlns="http://www.w3.org/2000/svg">
<path d="M40.5 217.534V196.534H120.5V216.034M3 102.534V219.034H156L165 155.534H128.5M3 102.534V85.0339C3.26629 77.1783 7.8936 62.9195 23 57.0937M3 102.534H72M72 102.534V81.0339C71.216 73.8473 65.8222 61.1495 51 56.3846M72 102.534V167.534H89.5L87.5 155.534H91.5M4.5 149.034H73.5M23 57.0937C26.8032 55.627 31.2707 54.6948 36.5 54.5339C42.1163 54.3611 46.916 55.0717 51 56.3846M23 57.0937V32.0339H37M51 56.3846V32.0339H37M37 32.0339V22.5339M37 22.5339H24M37 22.5339H50V11.5339C49.5 7.5339 45.4883 3.48062 37 3.0339C27.5 2.53393 24.3333 7.70059 24 9.53393V25.5339M128.5 155.534V126.534L121 109.034L120.5 95.0339C117.667 90.5339 107 85.0339 101 95.0339V108.034M128.5 155.534H91.5M101 108.034L91.5 127.534M101 108.034H120.5M91.5 127.534V155.534M91.5 127.534H126.5M143 152.534V121.534L137.5 99.5339V59.0339C137.5 48.5339 144 49.5339 144 49.5339C144 49.5339 147.5 49.5339 148.5 53.0339V98.5339L154 116.034V155.534M151 55.0339H161C163.667 55.2006 169.1 56.8339 169.5 62.0339C169.9 67.2339 169.667 80.5339 169.5 86.5339C169.417 89.5339 169.5 93.0339 166 94.5339C161.956 96.2672 153.333 95.0339 150 95.0339" stroke="black" stroke-width="6"/>
<path d="M50.0005 12.5339H67.0005L83.0005 26.5339M98.5005 196.534C111.5 196.534 112.167 185.367 111.5 181.034C111.5 173.434 104 169.534 100.5 169.534H55.5005C53.5 169.534 47.0002 173.983 47.0005 182.534C47.0008 191.085 54 195.534 59.5 196.534" stroke="black" stroke-width="6"/>
</svg>
