<svg width="188" height="210" viewBox="0 0 188 210" fill="none" xmlns="http://www.w3.org/2000/svg">
<path d="M122.405 26.6435C146.909 35.4922 193.466 68.0961 183.665 127.723C173.863 187.349 131.254 204.978 111.174 206.34" stroke="black" stroke-width="6" stroke-dasharray="12 12"/>
<path d="M89.7334 204.298C59.784 201.575 8.05317 183.877 3.96899 121.597C0.152631 63.3995 48.8933 33.4501 73.3974 27.6645L92.7962 22.5595M92.7962 22.5595L60.1241 3.16046M92.7962 22.5595L76.4601 57.2735" stroke="black" stroke-width="6"/>
<rect x="56.9976" y="85.7985" width="79.764" height="79.764" stroke="black" stroke-width="6"/>
<path d="M111.174 105.261V76.4625C111.174 70.9396 106.697 66.4625 101.174 66.4625H92.5859C87.0631 66.4625 82.5859 70.9397 82.5859 76.4625V105.261" stroke="black" stroke-width="6"/>
</svg>
