<svg width="215" height="182" viewBox="0 0 215 182" fill="none" xmlns="http://www.w3.org/2000/svg">
<circle cx="104.069" cy="55.0694" r="52.0694" fill="white" stroke="black" stroke-width="6"/>
<path d="M5.50023 147.5V62.828C11.7225 72.9443 25.5403 75.8424 32.0002 76H209C209.167 91.1667 209.4 126.7 209 147.5C208.6 168.3 192.5 175.5 184.5 176.5C143 176.167 54.4002 175.7 32.0002 176.5C9.60023 177.3 5.00023 157.5 5.50023 147.5Z" fill="white"/>
<path d="M53 42.5C45.1667 42.5 27.7 42.5 20.5 42.5C17.6737 42.5 14.8063 43.2705 12.1941 44.3577C5.83689 47.0038 3 53.9445 3 60.8305V155C3 168.255 13.7452 179 27 179H188C201.255 179 212 168.255 212 155V55.9642C212 49.3587 207.932 43.4353 201.767 41.0641V41.0641C199.938 40.3607 197.995 40 196.036 40H155.5" stroke="black" stroke-width="6"/>
<path d="M212 73.9957H74.4837H23.9995C9.99974 73.9957 0.99977 68.5 4.50001 51.5" stroke="black" stroke-width="6"/>
<path d="M212 101H176.5C166.835 101 159 108.835 159 118.5V118.5V118.5C159 128.165 166.835 136 176.5 136H212" stroke="black" stroke-width="6"/>
</svg>
